<svg width="38" height="24" fill="none" xmlns="http://www.w3.org/2000/svg"><path fill-rule="evenodd" clip-rule="evenodd" d="M8.091 21.536c0-1-.793-1.81-1.76-1.81-.98 0-1.772.81-1.772 1.81 0 .988.792 1.797 1.772 1.797.967 0 1.76-.81 1.76-1.797Zm13.115 0c0-1-.793-1.81-1.76-1.81-.98 0-1.773.81-1.773 1.81 0 .988.793 1.797 1.773 1.797.967 0 1.76-.81 1.76-1.797ZM3.807.438 1.027.01a.895.895 0 0 0-.303 1.76l1.76.31 1.072 12.98c.129 1.57 1.411 2.784 2.961 2.784h12.719c1.48 0 2.74-1.106 2.95-2.607l1.107-7.81c.105-.714.023-1.5-.443-2.047-.467-.548-.933-.798-1.644-.798H5.462a.718.718 0 0 1-.71-.668L4.53 1.247a.892.892 0 0 0-.723-.81Zm10.335 8.548h3.229c.49 0 .874.393.874.893a.883.883 0 0 1-.874.893h-3.23a.883.883 0 0 1-.874-.893c0-.5.385-.893.875-.893Zm19.246 3.436H30.77v1.106h2.618v2.758h1.148v-2.758h2.632v-1.106h-2.632v-2.73h-1.148v2.73Z" fill="#fff"/></svg>