<svg width="439" height="380" fill="none" xmlns="http://www.w3.org/2000/svg"><path d="M413.574 104.681v171.616c0 27.518-22.942 46.081-50.659 49.828-13.751 1.858-27.679 2.597-44.378 2.483-6.432-.045-13.275-.216-20.678-.5-6.044-.23-12.457-.538-19.332-.908-14.265-.773-30.481-1.83-49.378-3.1-12.576-.846-29.332-.952-47.522-.702-3.355.049-6.759.105-10.194.175-12.128.241-24.651.601-36.807.977-22.503.702-43.758 1.447-58.967 1.58C47.682 326.376 25 303.828 25 276.302V104.681c0-27.52 22.73-51.454 50.66-49.828 25.936 1.503 64.086 7.455 103.856 3.809 47.297-4.332 137.075-8.015 183.401-3.81 27.858 2.532 50.657 22.309 50.657 49.829Z" fill="#DAEBE8"/><path opacity=".4" d="M277.936 92.783s4.504-8.671 15.898-7.586c11.395 1.085 10.038 9.78 15.464 8.956 5.425-.823 13.022 0 14.651 5.432 1.628 5.432 8.948 2.446 9.224 7.063.275 4.617-8.41 7.878-18.448 3.804-10.039-4.074-14.915 3.161-29.03 1.854-14.116-1.306-15.855-2.941-24.214-2.127-8.359.815-8.152-4.917-4.353-8.712 3.798-3.794 19.183-3.433 20.808-8.684Z" fill="#fff"/><path opacity=".6" d="M145.994 84.707s2.571-4.95 9.075-4.33c6.504.62 5.731 5.582 8.829 5.117 3.099-.466 7.433 0 8.363 3.101.93 3.101 5.111 1.396 5.263 4.04.153 2.642-4.8 4.496-10.527 2.17-5.727-2.327-8.519 1.807-16.572 1.053-8.054-.753-9.051-1.678-13.818-1.213-4.767.465-4.653-2.81-2.486-4.973 2.167-2.164 10.947-1.967 11.873-4.965ZM245.668 73.733s2.189-4.215 7.729-3.688c5.539.527 4.879 4.756 7.518 4.359 2.639-.397 6.331 0 7.122 2.634.791 2.634 4.352 1.189 4.485 3.433.133 2.244-4.09 3.83-8.97 1.85-4.879-1.982-7.253 1.538-14.112.9-6.859-.637-7.708-1.43-11.768-1.032-4.06.397-3.964-2.387-2.116-4.236 1.847-1.85 9.32-1.667 10.112-4.22Z" fill="#fff"/><path d="M135.336 122.079c-2.922 2.787-4.676 2.687-5.766 1.54-1.09-1.147-1.107-2.905 1.811-5.688 5.323-5.075 9.871-5.453 9.871-5.453s-.514 4.452-5.916 9.601ZM141.137 147.609c-1.865 3.582-3.557 4.057-4.96 3.324-1.404-.732-1.985-2.39-.122-5.97 3.397-6.526 7.579-8.356 7.579-8.356s.949 4.376-2.497 11.002ZM155.106 214.298l-.758.108c-.016-.116-1.777-11.85-9.594-27.808-7.213-14.725-21.203-36.162-46.887-54.668l.446-.619c25.833 18.614 39.898 40.169 47.148 54.982 7.852 16.059 9.628 27.887 9.645 28.005Z" fill="#ACC9C5"/><path d="m125.116 155.995-.719-.255c9.234-26.182-6.018-51.762-6.176-52.016l.652-.399c.16.258 15.601 26.14 6.243 52.67ZM111.09 146.545c-7.554 1.774-14.15-.672-14.227-.702l.272-.713c.084.031 8.535 3.161 17.122-.402l.293.702a22.393 22.393 0 0 1-3.46 1.115ZM96.392 127.897c4.767 2.634 5.566 4.536 4.802 5.923-.763 1.387-2.807 1.728-7.567-.901-8.684-4.789-11.498-9.615-11.498-9.615s5.451-.267 14.263 4.593Z" fill="#ACC9C5"/><path d="M98.295 142.969c5.337 1.068 6.667 2.645 6.364 4.197-.304 1.553-2.15 2.492-7.487 1.425-9.722-1.946-13.861-5.697-13.861-5.697s5.12-1.9 14.984.075ZM115.918 132.903c1.793 3.62 1.179 5.269-.239 5.971-1.418.703-3.1.197-4.894-3.421-3.265-6.592-2.281-11.053-2.281-11.053s4.103 1.814 7.414 8.503ZM119.74 99.943c2.442 4.868 2.023 6.891.611 7.602-1.413.711-3.287-.161-5.731-5.029-4.45-8.867-4.036-14.44-4.036-14.44s4.64 2.87 9.156 11.867ZM196.243 289.552s-70.965-144.14-109.32-123.398c-38.356 20.741 68.935 86.049 88.265 128.656l21.055-5.258Z" fill="#ACC9C5"/><path d="M169.014 273.119s-74.178-94.021-104.412-71.773c-30.233 22.248 66.661 51.349 87.204 79.443l17.208-7.67Z" fill="#92BCB5"/><path d="M159.425 277.498c-13.833-19.668-35.499-36.095-51.235-46.419-17.069-11.194-31.028-17.812-31.168-17.879l.41-.878c.139.067 14.16 6.713 31.279 17.944 15.809 10.371 37.579 26.886 51.498 46.67l-.784.562Z" fill="#68A1BF"/><path d="M181.624 323.396c-15.69.223-30.999.655-47.001 1.149-.326-.6-.615-1.218-.865-1.853-9.034-9.327-7.462-7.936-27.775-4.325-20.313 3.61-15.63-22.775-32.915-27.747-17.465-5.01-35.896-19.215-24.177-33.15 11.77-13.968 23.7-9 37.467-6.849 9.388 1.465 23.687-13.598 36.515-15.306 8.001-1.054 12.652 3.256 16.704 10.117 8.299 14.196 14.18 17.254 21.56 18.176 2.469.307 4.95.367 8.468.567 5.601.332 16.955 1.619 21.131 5.359 18.325 16.401 10.29 39.418-9.112 53.862Z" fill="#CCD39C"/><path d="m178.501 302.646.723-.936c-.41-.319-42.294-32.054-133.095-40.227l-.107 1.178c90.46 8.145 132.069 39.662 132.479 39.985ZM124.251 263.734c12.712-10.01 15.393-18.439 15.5-18.79l-1.13-.352c-.026.085-2.714 8.463-15.101 18.216l.731.926Z" fill="#C2C68E"/><path d="M121.327 276.332c3.766-5.721 4.015-14.308.721-24.835a79.187 79.187 0 0 0-6.111-14.233l-1.023.594c.14.246 14.09 24.677 5.439 37.83l.974.644ZM97.53 272.694c1.508-1.101 2.33-1.827 2.368-1.86l-.79-.878c-.175.155-17.525 15.422-41.486 13.102l-.112 1.177c19.3 1.867 34.406-7.439 40.02-11.541Z" fill="#C2C68E"/><path d="M83.922 299.223c5.885-5.754 7.856-11.766 8.471-15.792.669-4.391-.058-7.376-.087-7.504l-1.15.286c.03.114 2.715 11.627-8.06 22.164l.826.846Z" fill="#C2C68E"/><path d="M55.152 235.999c-3.76-1.58-4.378-3.24-3.76-4.715.617-1.475 2.237-2.202 5.995-.625 6.843 2.871 9.042 6.93 9.042 6.93s-4.329 1.324-11.277-1.59Z" fill="#ACC9C5"/><path opacity=".6" d="M243.555 289.095s51.087-180.539 99.514-164.825c48.427 15.714-61.016 113.387-74.22 166.415l-25.294-1.59Z" fill="#ACC9C5"/><path d="M279.713 279.628s62.511-108.243 97.074-89.8c34.562 18.442-61.149 63.044-78.151 95.144l-18.923-5.344Z" fill="#CCD39C"/><path d="M290.272 282.71c11.338-22.381 31.251-42.608 45.959-55.637 15.945-14.123 29.37-23.054 29.503-23.144l-.552-.827c-.134.09-13.618 9.06-29.615 23.23-14.774 13.085-34.778 33.41-46.188 55.934l.893.444Z" fill="#C2C68E"/><path d="M372.372 298.522c-3.998 1.147-6.797 3.651-9.085 7.107-5.367 8.066-6.866 19.2-19.504 16.952-14.914-2.661-16.236-3.936-21.034.628a24.027 24.027 0 0 0-4.178 5.341c-.053.088-8.759.014-20.705-.444-10.733-.41-19.09-.908-19.334-.908-16.221-11.859-24.889-32.209-8.281-47.054 2.072-1.856 5.392-2.665 8.16-3.287 16.831-3.779 23.216 3.122 34.712-15.043 2.118-3.337 3.523-6.564 6.89-9.081 12.763-9.525 30.355 12.695 40.856 11.064 11.953-1.858 22.31-6.164 32.517 5.97 10.157 12.093-5.891 24.435-21.014 28.755Z" fill="#ACC9C5"/><g opacity=".5" fill="#68A1BF"><path opacity=".5" d="m280.843 308.89-.628-.813c.351-.278 36.734-27.798 115.56-34.833l.091 1.024c-78.529 7.009-114.667 34.346-115.023 34.622ZM327.959 275.148c-11.029-8.695-13.349-16.021-13.443-16.332l.982-.3c.023.073 2.35 7.347 13.097 15.82l-.636.812Z"/><path opacity=".5" d="M330.488 286.09c-3.264-4.968-3.474-12.422-.609-21.558a68.743 68.743 0 0 1 5.322-12.356l.888.517c-.123.212-12.247 21.41-4.738 32.839l-.863.558ZM351.147 282.942c-1.308-.956-2.022-1.581-2.053-1.616l.684-.764c.149.133 15.204 13.397 36.005 11.401l.098 1.022c-16.753 1.61-29.864-6.479-34.734-10.043Z"/><path opacity=".5" d="M362.943 305.978c-5.106-4.998-6.812-10.217-7.343-13.713-.577-3.807.054-6.405.081-6.514l.996.25c-.024.1-2.363 10.092 6.984 19.243l-.718.734Z"/></g><path d="M276.39 151.551c.451-4.727 2.087-5.99 3.938-5.812 1.851.177 3.218 1.728 2.767 6.455-.825 8.605-4.574 12.453-4.574 12.453s-2.966-4.357-2.131-13.096ZM371.074 247.829c4.973-.854 6.722.474 7.057 2.423.335 1.949-.877 3.786-5.846 4.64-9.057 1.556-14.037-1.23-14.037-1.23s3.637-4.255 12.826-5.833ZM356.207 240.042c2.679-3.92 4.72-4.234 6.255-3.182 1.536 1.052 1.983 3.068-.702 6.988-4.879 7.14-10.018 8.689-10.018 8.689s-.486-5.249 4.465-12.495Z" fill="#ACC9C5"/><path d="M183.83 129.061s3.129 26.83-10.478 27.558c-34.756 1.864-53.875 26.664-33.599 30.502 9.022 1.711-3.738 11.942-22.731 22.793-22.417 12.82-21.515 53.37 16.979 58.036 38.495 4.666 64.043-24.719 84.165-11.085 20.122 13.635 53.781-15.896 70.976-14.86 17.195 1.036 31.144 3.498 36.145-11.046 5.001-14.544-41.312-18.044-38.938-41.62 2.374-23.575-41.635-25.951-31.957-30.194 34.753-15.238-9.515-26.693-21.419-44.483-8.015-11.975-49.143 14.399-49.143 14.399Z" fill="#331832"/><path d="M297.86 328.108c-63.124-2.41-61.62-5.817-126.428-4.54-.906-33.626.877-82.119 13.096-113.636-3.158-2.057-18.4-11.996-21.089-13.749 0-.017.416-.641.446-.671 1.423-1.996 6.436-8.113 17.644-13.481.729 0 14.325-8.504 44.392-9.099 5.166-.095 10.289.508 15.37 1.444.134.066 7.568 1.276 11.304 2.458 13.136 4.095 22.029 8.356 27.972 11.996 9.097 5.572 11.126 9.464 11.201 9.539 0 .227-6.299 12.908-15.216 16.989.27.813 3.957 12.82 3.957 12.901 9.82 32.858 16.967 65.689 17.351 99.849Z" fill="#73B3CE"/><path d="M198.923 209.312c1.015-2.741-6.103-7.911-15.9-11.548-9.797-3.637-18.563-4.363-19.578-1.623-1.016 2.741 6.103 7.911 15.9 11.548 9.797 3.637 18.562 4.363 19.578 1.623ZM235.198 126.279s-.286 3.764 2.963 10.872c4.755 10.404-6.959 16.894-10.624 14.288-.453-.321-2.832-18.911-2.832-18.911l3.602-2.986 6.891-3.263Z" fill="#331832"/><path d="M220.098 129.086s11.62 8.956 9.847 20.258c0 0 4.793-7.233 4.551-9.616s-3.114-10.667-3.114-10.667l-11.284.025Z" fill="#331832"/><path d="M225.226 141.222a.4.4 0 0 1-.282-.102.404.404 0 0 1 .217-.702c.026 0 2.516-.425 3.423-2.042a.411.411 0 0 1 .243-.193.401.401 0 0 1 .498.281.41.41 0 0 1-.036.309c-1.1 1.961-3.881 2.425-4 2.446l-.063.003Z" fill="#EC865C"/><path d="M241.35 174.391c-3.086-.788-6.222-1.898-8.564-5.619l-7.561-14.139-1.903-.902-12.521-19.894 5.057 21.861 3.035 13.119s.932 3.381-4.43 4.675c0 0-3.86 11.287 3.258 12.091 11.593 1.312 23.652-11.186 23.629-11.192Z" fill="#FFB27D"/><path d="M225.415 156.741c.015.123.026.246.033.369.591 7.21-6.504 11.736-6.504 11.736l-.053-.034-3.036-13.12c2.195-1.218 5.375-2.618 7.465-1.966 1.093.346 1.888 1.246 2.095 3.015Z" fill="#E9845C"/><path d="M214.373 163.16c-6.142.964-12.174-1.462-16.794-6.099a26.928 26.928 0 0 1-3.999-5.155 30.902 30.902 0 0 1-3.981-11.118c-2.216-14.154 5.278-27.086 16.741-28.886 11.463-1.8 22.552 8.217 24.772 22.371 2.219 14.154-5.284 27.086-16.739 28.887Z" fill="#FFB27D"/><path d="M230.862 136.909c1.784-2.775 1.441-6.176-.764-7.596-2.205-1.419-5.439-.321-7.222 2.454-1.784 2.775-1.442 6.176.764 7.596 2.205 1.42 5.439.321 7.222-2.454Z" fill="#FFB27D"/><path d="M202.064 154.542s6.908.285 13.816-4.555c0 0 .104 6.281-5.853 7.646-5.06 1.161-7.963-3.091-7.963-3.091Z" fill="#fff"/><path d="M208.383 138.093a.473.473 0 0 1-.261-.122.47.47 0 0 1-.118-.536.476.476 0 0 1 .186-.22c.133-.079 3.055-2.215 6.317.404a.479.479 0 0 1 .087.67c-.159.209-.43.201-.67.088-2.397-1.118-5.143-.405-5.253-.34a.482.482 0 0 1-.288.056ZM191.914 143.201a.48.48 0 0 1-.526-.186.477.477 0 0 1 .01-.558c.093-.125 1.982-3.212 6.002-2.039a.481.481 0 0 1 .337.586c-.068.257-.323.352-.586.338-2.642-.12-4.913 1.58-4.988 1.687a.479.479 0 0 1-.249.172ZM210.545 144.308c-1.166 0-1.852-.397-1.909-.432a.654.654 0 0 1-.203-.881.653.653 0 0 1 .87-.245c.098.056 2.125 1.127 5.439-1.598a.656.656 0 0 1 1.001.812.663.663 0 0 1-.167.198c-2.079 1.715-3.818 2.146-5.031 2.146ZM196.424 148.285c-1.167 0-1.854-.397-1.911-.432a.654.654 0 0 1-.222-.899.637.637 0 0 1 .399-.299.64.64 0 0 1 .494.073c.101.058 2.13 1.123 5.428-1.599a.656.656 0 1 1 .834 1.01c-2.079 1.716-3.809 2.146-5.022 2.146Z" fill="#080435"/><path d="M291.767 198.361s-6.803 12.691-15.22 16.988l5.615 20.593-17.957-4.679 1.123-23.026 20.947-11.984 5.492 2.108Z" fill="#92A5E6"/><path d="M165.81 197.728s-47.041 53.711-40.632 66.838c6.41 13.127 30.432 21.952 52.749-10.633 13.323-19.453 11.098-58.372-12.117-56.205Z" fill="#FFB27D"/><path d="M192.942 124.36s4.999 7.488 20.108 4.701c11.035-2.036 18.13 2.125 18.95 11.091.819 8.967 39.049 3.067 39.049 3.067s8.571-5.634-15.641-15.087c-10.342-4.039-21.608-40.951-60.885-26.96-22.238 7.922-28.128 27.341-18.423 37.969 11.755 12.862-8.666 18.028-8.666 18.028l23.862 1.835s-5.058-10.396-1.71-18.218c3.347-7.821-1.048-9.426 3.356-16.426Z" fill="#331832"/><path d="M301.769 213.702s18.994 26.043 18.278 36.297c-.716 10.254-30.901-14.83-30.901-14.83l12.623-21.467Z" fill="#FFB27D"/><path d="M218.371 199.179s-29.522-29.267-60.933-11.53c-32.86 18.553-6.764 70.537 28.894 91.827 35.657 21.289 44.884 29.959 52.462 27.817 7.579-2.143 109.042-93.777 70.132-144.156-27.916-36.157-76.403-26.472-90.555 36.042Z" fill="#EF8062"/><path d="M297.871 172.859s-3.818-15.205-20.906-18.466c-17.088-3.261-25.136 4.757-21.478 9.724 3.658 4.966 15.541.279 20.759 7.375 5.218 7.097 23.034 15.036 21.625 1.367Z" fill="#FFC9BC"/><path opacity=".3" d="M174.005 224.878c-2.672-3.8-12.398-23.894-18.898-20.792-8.773 4.184-3.375 31.724 8.332 46.398 11.707 14.674 53.833 51.342 71.669 48.551 9.013-1.405 29.228-18.636 28.218-29.574-3.045-32.94-40.809-1.521-49.407-14.824-8.597-13.302-32.148-18.711-39.914-29.759Z" fill="#D05F47"/><path d="M204.998 260.879s-37.197-11.375-54.282-14.913c-15.311-3.172-26.596 2.283-25.54 18.593.782 12.072 18.423 17.177 44.516 18.837 26.093 1.659 53.138-1.33 53.138-1.33 1.355-4.304-17.832-21.187-17.832-21.187Z" fill="#FFB27D"/><path d="M221.042 282.038c-9.561.175-20.954-2.404-20.954-2.404s-4.007-16.041-2.711-17.605c5.001-6.041 14.536-10.769 17.841-14.09 1.434-1.44 6.587-5.948 8.203-4.706 1.404 1.08-.993 6.619-2.456 9.116 13.171-2.362 33.455.121 6.211 7.086 0 .014 0 .03.012.045 2.82-.449 22.066-2.86 21.191 1.156-.774 3.544-15.49 5.716-20.12 6.498v.131c4.777-.39 19.156-2.049 17.335 1.079-2.281 3.924-17.281 7.707-17.281 7.707s15.628-3.187 13.546 1.668c-1.42 3.312-14.502 3.917-19.04 4.345a7.6 7.6 0 0 1-1.777-.026ZM227.665 238.795c8.675 4.027 20.137 6.278 20.137 6.278s10.144-13.047 9.591-15.004c-2.133-7.551-8.948-15.729-10.628-20.106-.728-1.896-3.621-8.106-5.6-7.623-1.722.42-1.765 6.456-1.441 9.33-11.094-7.491-30.648-13.427-8.543 3.967l-.03.037c-2.397-1.552-19.027-11.546-19.848-7.518-.725 3.555 11.858 11.496 15.776 14.09l-.062.117c-4.211-2.283-16.691-9.625-16.289-6.027.503 4.515 12.691 14.049 12.691 14.049s-13.006-9.239-13.063-3.954c-.039 3.603 11.684 9.449 15.659 11.678a7.538 7.538 0 0 0 1.65.686Z" fill="#FFB27D"/><path d="M152.182 246.558a.662.662 0 0 1-.063 0c-4.988-1.156-11.528-.315-11.593-.308a.276.276 0 0 1-.203-.053.268.268 0 0 1-.104-.182.274.274 0 0 1 .235-.309c.067-.011 6.699-.859 11.79.316a.274.274 0 0 1 .205.298.279.279 0 0 1-.267.245v-.007Z" fill="#E9845C"/><path d="M250.883 225.932s35.907 1.343 50.717 6.355c14.52 4.917 23.688 18.889 15.169 26.858-8.833 8.254-22.108 5.681-46.646-3.361s-36.238-14.518-36.238-14.518c.502-4.482 16.998-15.334 16.998-15.334Z" fill="#FFB27D"/><path d="M310.851 237.387a.264.264 0 0 1-.176-.065c-2.456-2.033-6.53-3.751-6.572-3.767a.274.274 0 0 1-.148-.361.278.278 0 0 1 .362-.148c.175.072 4.181 1.767 6.708 3.863a.281.281 0 0 1 .091.14.27.27 0 0 1-.007.166.27.27 0 0 1-.26.181l.002-.009Z" fill="#E9845C"/><path opacity=".7" d="M216.433 145.867c-.234-2.965 2.37-3.939 4.169-4.173 2.807-.365 4.319 1.784 4.319 3.6 0 2.712-1.819 4.642-4.111 4.276-1.791-.284-4.17-1.048-4.377-3.703Z" fill="#EF8062"/><path opacity=".5" d="M197.782 156.999c-.068.021-.135.044-.207.061a26.89 26.89 0 0 1-3.999-5.154c.161-.248.354-.473.574-.671 1.284-1.146 3.018-.024 3.83 1.319 1.216 2.006 1.144 4.001-.198 4.445Z" fill="#EF8062"/></svg>